<mxfile host="Electron" modified="2024-10-18T19:10:47.990Z" agent="Mozilla/5.0 (Windows NT 10.0; Win64; x64) AppleWebKit/537.36 (KHTML, like Gecko) draw.io/21.2.8 Chrome/112.0.5615.165 Electron/24.2.0 Safari/537.36" etag="hl7kvQ7LNHLSHMWdJuaj" version="21.2.8" type="device">
  <diagram name="Page-1" id="QkT4ePecXum3mb3bgLKw">
    <mxGraphModel dx="2173" dy="1638" grid="0" gridSize="10" guides="1" tooltips="1" connect="1" arrows="1" fold="1" page="0" pageScale="1" pageWidth="827" pageHeight="1169" math="0" shadow="0">
      <root>
        <mxCell id="0" />
        <mxCell id="1" parent="0" />
        <mxCell id="4gYyM9mv-3FjDf3Llc9C-81" style="edgeStyle=orthogonalEdgeStyle;shape=connector;rounded=0;orthogonalLoop=1;jettySize=auto;html=1;labelBackgroundColor=default;strokeColor=default;fontFamily=Helvetica;fontSize=12;fontColor=default;endArrow=none;endFill=0;startSize=8;endSize=8;" edge="1" parent="1" source="4gYyM9mv-3FjDf3Llc9C-1" target="4gYyM9mv-3FjDf3Llc9C-38">
          <mxGeometry relative="1" as="geometry" />
        </mxCell>
        <mxCell id="4gYyM9mv-3FjDf3Llc9C-134" value="1..1" style="edgeLabel;html=1;align=center;verticalAlign=middle;resizable=0;points=[];fontSize=18;fontFamily=Helvetica;fontColor=default;" vertex="1" connectable="0" parent="4gYyM9mv-3FjDf3Llc9C-81">
          <mxGeometry x="0.9015" y="2" relative="1" as="geometry">
            <mxPoint as="offset" />
          </mxGeometry>
        </mxCell>
        <mxCell id="4gYyM9mv-3FjDf3Llc9C-135" value="1..n" style="edgeLabel;html=1;align=center;verticalAlign=middle;resizable=0;points=[];fontSize=18;fontFamily=Helvetica;fontColor=default;" vertex="1" connectable="0" parent="4gYyM9mv-3FjDf3Llc9C-81">
          <mxGeometry x="-0.9212" y="-3" relative="1" as="geometry">
            <mxPoint as="offset" />
          </mxGeometry>
        </mxCell>
        <mxCell id="4gYyM9mv-3FjDf3Llc9C-1" value="language" style="swimlane;fontStyle=0;childLayout=stackLayout;horizontal=1;startSize=30;horizontalStack=0;resizeParent=1;resizeParentMax=0;resizeLast=0;collapsible=1;marginBottom=0;whiteSpace=wrap;html=1;fontSize=16;" vertex="1" parent="1">
          <mxGeometry x="40" y="-228" width="140" height="120" as="geometry" />
        </mxCell>
        <mxCell id="4gYyM9mv-3FjDf3Llc9C-2" value="id&lt;span style=&quot;white-space: pre;&quot;&gt;	&lt;/span&gt;&lt;br&gt;" style="text;strokeColor=none;fillColor=none;align=left;verticalAlign=middle;spacingLeft=4;spacingRight=4;overflow=hidden;points=[[0,0.5],[1,0.5]];portConstraint=eastwest;rotatable=0;whiteSpace=wrap;html=1;fontSize=16;" vertex="1" parent="4gYyM9mv-3FjDf3Llc9C-1">
          <mxGeometry y="30" width="140" height="30" as="geometry" />
        </mxCell>
        <mxCell id="4gYyM9mv-3FjDf3Llc9C-3" value="name" style="text;strokeColor=none;fillColor=none;align=left;verticalAlign=middle;spacingLeft=4;spacingRight=4;overflow=hidden;points=[[0,0.5],[1,0.5]];portConstraint=eastwest;rotatable=0;whiteSpace=wrap;html=1;fontSize=16;" vertex="1" parent="4gYyM9mv-3FjDf3Llc9C-1">
          <mxGeometry y="60" width="140" height="30" as="geometry" />
        </mxCell>
        <mxCell id="4gYyM9mv-3FjDf3Llc9C-4" value="code" style="text;strokeColor=none;fillColor=none;align=left;verticalAlign=middle;spacingLeft=4;spacingRight=4;overflow=hidden;points=[[0,0.5],[1,0.5]];portConstraint=eastwest;rotatable=0;whiteSpace=wrap;html=1;fontSize=16;" vertex="1" parent="4gYyM9mv-3FjDf3Llc9C-1">
          <mxGeometry y="90" width="140" height="30" as="geometry" />
        </mxCell>
        <mxCell id="4gYyM9mv-3FjDf3Llc9C-82" style="edgeStyle=orthogonalEdgeStyle;shape=connector;rounded=0;orthogonalLoop=1;jettySize=auto;html=1;labelBackgroundColor=default;strokeColor=default;fontFamily=Helvetica;fontSize=12;fontColor=default;endArrow=none;endFill=0;startSize=8;endSize=8;" edge="1" parent="1" source="4gYyM9mv-3FjDf3Llc9C-9" target="4gYyM9mv-3FjDf3Llc9C-43">
          <mxGeometry relative="1" as="geometry">
            <Array as="points">
              <mxPoint x="593" y="457" />
            </Array>
          </mxGeometry>
        </mxCell>
        <mxCell id="4gYyM9mv-3FjDf3Llc9C-96" value="1..n" style="edgeLabel;html=1;align=center;verticalAlign=middle;resizable=0;points=[];fontSize=18;fontFamily=Helvetica;fontColor=default;" vertex="1" connectable="0" parent="4gYyM9mv-3FjDf3Llc9C-82">
          <mxGeometry x="-0.8551" y="4" relative="1" as="geometry">
            <mxPoint as="offset" />
          </mxGeometry>
        </mxCell>
        <mxCell id="4gYyM9mv-3FjDf3Llc9C-97" value="1..1" style="edgeLabel;html=1;align=center;verticalAlign=middle;resizable=0;points=[];fontSize=18;fontFamily=Helvetica;fontColor=default;" vertex="1" connectable="0" parent="4gYyM9mv-3FjDf3Llc9C-82">
          <mxGeometry x="0.8841" y="4" relative="1" as="geometry">
            <mxPoint as="offset" />
          </mxGeometry>
        </mxCell>
        <mxCell id="4gYyM9mv-3FjDf3Llc9C-9" value="author" style="swimlane;fontStyle=0;childLayout=stackLayout;horizontal=1;startSize=30;horizontalStack=0;resizeParent=1;resizeParentMax=0;resizeLast=0;collapsible=1;marginBottom=0;whiteSpace=wrap;html=1;fontSize=16;" vertex="1" parent="1">
          <mxGeometry x="243" y="349" width="140" height="120" as="geometry" />
        </mxCell>
        <mxCell id="4gYyM9mv-3FjDf3Llc9C-10" value="id" style="text;strokeColor=none;fillColor=none;align=left;verticalAlign=middle;spacingLeft=4;spacingRight=4;overflow=hidden;points=[[0,0.5],[1,0.5]];portConstraint=eastwest;rotatable=0;whiteSpace=wrap;html=1;fontSize=16;" vertex="1" parent="4gYyM9mv-3FjDf3Llc9C-9">
          <mxGeometry y="30" width="140" height="30" as="geometry" />
        </mxCell>
        <mxCell id="4gYyM9mv-3FjDf3Llc9C-11" value="name" style="text;strokeColor=none;fillColor=none;align=left;verticalAlign=middle;spacingLeft=4;spacingRight=4;overflow=hidden;points=[[0,0.5],[1,0.5]];portConstraint=eastwest;rotatable=0;whiteSpace=wrap;html=1;fontSize=16;" vertex="1" parent="4gYyM9mv-3FjDf3Llc9C-9">
          <mxGeometry y="60" width="140" height="30" as="geometry" />
        </mxCell>
        <mxCell id="4gYyM9mv-3FjDf3Llc9C-12" value="profile_picture" style="text;strokeColor=none;fillColor=none;align=left;verticalAlign=middle;spacingLeft=4;spacingRight=4;overflow=hidden;points=[[0,0.5],[1,0.5]];portConstraint=eastwest;rotatable=0;whiteSpace=wrap;html=1;fontSize=16;" vertex="1" parent="4gYyM9mv-3FjDf3Llc9C-9">
          <mxGeometry y="90" width="140" height="30" as="geometry" />
        </mxCell>
        <mxCell id="4gYyM9mv-3FjDf3Llc9C-49" style="edgeStyle=orthogonalEdgeStyle;rounded=0;orthogonalLoop=1;jettySize=auto;html=1;fontSize=12;startSize=8;endSize=8;endArrow=none;endFill=0;" edge="1" parent="1" source="4gYyM9mv-3FjDf3Llc9C-21" target="4gYyM9mv-3FjDf3Llc9C-17">
          <mxGeometry relative="1" as="geometry" />
        </mxCell>
        <mxCell id="4gYyM9mv-3FjDf3Llc9C-127" value="1..n" style="edgeLabel;html=1;align=center;verticalAlign=middle;resizable=0;points=[];fontSize=18;fontFamily=Helvetica;fontColor=default;" vertex="1" connectable="0" parent="4gYyM9mv-3FjDf3Llc9C-49">
          <mxGeometry x="-0.8353" y="-3" relative="1" as="geometry">
            <mxPoint as="offset" />
          </mxGeometry>
        </mxCell>
        <mxCell id="4gYyM9mv-3FjDf3Llc9C-128" value="1..1" style="edgeLabel;html=1;align=center;verticalAlign=middle;resizable=0;points=[];fontSize=18;fontFamily=Helvetica;fontColor=default;" vertex="1" connectable="0" parent="4gYyM9mv-3FjDf3Llc9C-49">
          <mxGeometry x="0.8824" y="-1" relative="1" as="geometry">
            <mxPoint as="offset" />
          </mxGeometry>
        </mxCell>
        <mxCell id="4gYyM9mv-3FjDf3Llc9C-21" value="category" style="swimlane;fontStyle=0;childLayout=stackLayout;horizontal=1;startSize=30;horizontalStack=0;resizeParent=1;resizeParentMax=0;resizeLast=0;collapsible=1;marginBottom=0;whiteSpace=wrap;html=1;fontSize=16;" vertex="1" parent="1">
          <mxGeometry x="-326" y="203" width="140" height="60" as="geometry" />
        </mxCell>
        <mxCell id="4gYyM9mv-3FjDf3Llc9C-22" value="id" style="text;strokeColor=none;fillColor=none;align=left;verticalAlign=middle;spacingLeft=4;spacingRight=4;overflow=hidden;points=[[0,0.5],[1,0.5]];portConstraint=eastwest;rotatable=0;whiteSpace=wrap;html=1;fontSize=16;" vertex="1" parent="4gYyM9mv-3FjDf3Llc9C-21">
          <mxGeometry y="30" width="140" height="30" as="geometry" />
        </mxCell>
        <mxCell id="4gYyM9mv-3FjDf3Llc9C-48" style="edgeStyle=orthogonalEdgeStyle;rounded=0;orthogonalLoop=1;jettySize=auto;html=1;fontSize=12;startSize=8;endSize=8;endArrow=none;endFill=0;" edge="1" parent="1" source="4gYyM9mv-3FjDf3Llc9C-17" target="4gYyM9mv-3FjDf3Llc9C-1">
          <mxGeometry relative="1" as="geometry" />
        </mxCell>
        <mxCell id="4gYyM9mv-3FjDf3Llc9C-129" value="1..1" style="edgeLabel;html=1;align=center;verticalAlign=middle;resizable=0;points=[];fontSize=18;fontFamily=Helvetica;fontColor=default;" vertex="1" connectable="0" parent="4gYyM9mv-3FjDf3Llc9C-48">
          <mxGeometry x="-0.8917" y="-3" relative="1" as="geometry">
            <mxPoint as="offset" />
          </mxGeometry>
        </mxCell>
        <mxCell id="4gYyM9mv-3FjDf3Llc9C-130" value="1..n" style="edgeLabel;html=1;align=center;verticalAlign=middle;resizable=0;points=[];fontSize=18;fontFamily=Helvetica;fontColor=default;" vertex="1" connectable="0" parent="4gYyM9mv-3FjDf3Llc9C-48">
          <mxGeometry x="0.9088" y="-2" relative="1" as="geometry">
            <mxPoint x="-9" y="-1" as="offset" />
          </mxGeometry>
        </mxCell>
        <mxCell id="4gYyM9mv-3FjDf3Llc9C-17" value="category_translation" style="swimlane;fontStyle=0;childLayout=stackLayout;horizontal=1;startSize=30;horizontalStack=0;resizeParent=1;resizeParentMax=0;resizeLast=0;collapsible=1;marginBottom=0;whiteSpace=wrap;html=1;fontSize=16;" vertex="1" parent="1">
          <mxGeometry x="-342" y="-151" width="188" height="210" as="geometry" />
        </mxCell>
        <mxCell id="4gYyM9mv-3FjDf3Llc9C-18" value="id" style="text;strokeColor=none;fillColor=none;align=left;verticalAlign=middle;spacingLeft=4;spacingRight=4;overflow=hidden;points=[[0,0.5],[1,0.5]];portConstraint=eastwest;rotatable=0;whiteSpace=wrap;html=1;fontSize=16;" vertex="1" parent="4gYyM9mv-3FjDf3Llc9C-17">
          <mxGeometry y="30" width="188" height="30" as="geometry" />
        </mxCell>
        <mxCell id="4gYyM9mv-3FjDf3Llc9C-19" value="category_id" style="text;strokeColor=none;fillColor=none;align=left;verticalAlign=middle;spacingLeft=4;spacingRight=4;overflow=hidden;points=[[0,0.5],[1,0.5]];portConstraint=eastwest;rotatable=0;whiteSpace=wrap;html=1;fontSize=16;" vertex="1" parent="4gYyM9mv-3FjDf3Llc9C-17">
          <mxGeometry y="60" width="188" height="30" as="geometry" />
        </mxCell>
        <mxCell id="4gYyM9mv-3FjDf3Llc9C-20" value="language_id" style="text;strokeColor=none;fillColor=none;align=left;verticalAlign=middle;spacingLeft=4;spacingRight=4;overflow=hidden;points=[[0,0.5],[1,0.5]];portConstraint=eastwest;rotatable=0;whiteSpace=wrap;html=1;fontSize=16;" vertex="1" parent="4gYyM9mv-3FjDf3Llc9C-17">
          <mxGeometry y="90" width="188" height="30" as="geometry" />
        </mxCell>
        <mxCell id="4gYyM9mv-3FjDf3Llc9C-15" value="name" style="text;strokeColor=none;fillColor=none;align=left;verticalAlign=middle;spacingLeft=4;spacingRight=4;overflow=hidden;points=[[0,0.5],[1,0.5]];portConstraint=eastwest;rotatable=0;whiteSpace=wrap;html=1;fontSize=16;" vertex="1" parent="4gYyM9mv-3FjDf3Llc9C-17">
          <mxGeometry y="120" width="188" height="30" as="geometry" />
        </mxCell>
        <mxCell id="4gYyM9mv-3FjDf3Llc9C-16" value="sllug" style="text;strokeColor=none;fillColor=none;align=left;verticalAlign=middle;spacingLeft=4;spacingRight=4;overflow=hidden;points=[[0,0.5],[1,0.5]];portConstraint=eastwest;rotatable=0;whiteSpace=wrap;html=1;fontSize=16;" vertex="1" parent="4gYyM9mv-3FjDf3Llc9C-17">
          <mxGeometry y="150" width="188" height="30" as="geometry" />
        </mxCell>
        <mxCell id="4gYyM9mv-3FjDf3Llc9C-25" value="description" style="text;strokeColor=none;fillColor=none;align=left;verticalAlign=middle;spacingLeft=4;spacingRight=4;overflow=hidden;points=[[0,0.5],[1,0.5]];portConstraint=eastwest;rotatable=0;whiteSpace=wrap;html=1;fontSize=16;" vertex="1" parent="4gYyM9mv-3FjDf3Llc9C-17">
          <mxGeometry y="180" width="188" height="30" as="geometry" />
        </mxCell>
        <mxCell id="4gYyM9mv-3FjDf3Llc9C-84" style="edgeStyle=orthogonalEdgeStyle;shape=connector;rounded=0;orthogonalLoop=1;jettySize=auto;html=1;labelBackgroundColor=default;strokeColor=default;fontFamily=Helvetica;fontSize=12;fontColor=default;endArrow=none;endFill=0;startSize=8;endSize=8;" edge="1" parent="1" source="4gYyM9mv-3FjDf3Llc9C-26" target="4gYyM9mv-3FjDf3Llc9C-66">
          <mxGeometry relative="1" as="geometry" />
        </mxCell>
        <mxCell id="4gYyM9mv-3FjDf3Llc9C-114" value="1..n" style="edgeLabel;html=1;align=center;verticalAlign=middle;resizable=0;points=[];fontSize=18;fontFamily=Helvetica;fontColor=default;" vertex="1" connectable="0" parent="4gYyM9mv-3FjDf3Llc9C-84">
          <mxGeometry x="-0.8222" y="-3" relative="1" as="geometry">
            <mxPoint as="offset" />
          </mxGeometry>
        </mxCell>
        <mxCell id="4gYyM9mv-3FjDf3Llc9C-115" value="1..1" style="edgeLabel;html=1;align=center;verticalAlign=middle;resizable=0;points=[];fontSize=18;fontFamily=Helvetica;fontColor=default;" vertex="1" connectable="0" parent="4gYyM9mv-3FjDf3Llc9C-84">
          <mxGeometry x="0.7778" y="-2" relative="1" as="geometry">
            <mxPoint as="offset" />
          </mxGeometry>
        </mxCell>
        <mxCell id="4gYyM9mv-3FjDf3Llc9C-85" style="edgeStyle=orthogonalEdgeStyle;shape=connector;rounded=0;orthogonalLoop=1;jettySize=auto;html=1;labelBackgroundColor=default;strokeColor=default;fontFamily=Helvetica;fontSize=12;fontColor=default;endArrow=none;endFill=0;startSize=8;endSize=8;" edge="1" parent="1" source="4gYyM9mv-3FjDf3Llc9C-26" target="4gYyM9mv-3FjDf3Llc9C-58">
          <mxGeometry relative="1" as="geometry">
            <Array as="points">
              <mxPoint x="144" y="203" />
              <mxPoint x="144" y="237" />
              <mxPoint x="85" y="237" />
            </Array>
          </mxGeometry>
        </mxCell>
        <mxCell id="4gYyM9mv-3FjDf3Llc9C-112" value="1..n" style="edgeLabel;html=1;align=center;verticalAlign=middle;resizable=0;points=[];fontSize=18;fontFamily=Helvetica;fontColor=default;" vertex="1" connectable="0" parent="4gYyM9mv-3FjDf3Llc9C-85">
          <mxGeometry x="0.8855" y="-1" relative="1" as="geometry">
            <mxPoint as="offset" />
          </mxGeometry>
        </mxCell>
        <mxCell id="4gYyM9mv-3FjDf3Llc9C-113" value="1..1" style="edgeLabel;html=1;align=center;verticalAlign=middle;resizable=0;points=[];fontSize=18;fontFamily=Helvetica;fontColor=default;" vertex="1" connectable="0" parent="4gYyM9mv-3FjDf3Llc9C-85">
          <mxGeometry x="-0.8721" y="4" relative="1" as="geometry">
            <mxPoint as="offset" />
          </mxGeometry>
        </mxCell>
        <mxCell id="4gYyM9mv-3FjDf3Llc9C-26" value="content_block" style="swimlane;fontStyle=0;childLayout=stackLayout;horizontal=1;startSize=30;horizontalStack=0;resizeParent=1;resizeParentMax=0;resizeLast=0;collapsible=1;marginBottom=0;whiteSpace=wrap;html=1;fontSize=16;" vertex="1" parent="1">
          <mxGeometry x="233" y="179" width="166" height="150" as="geometry" />
        </mxCell>
        <mxCell id="4gYyM9mv-3FjDf3Llc9C-27" value="id" style="text;strokeColor=none;fillColor=none;align=left;verticalAlign=middle;spacingLeft=4;spacingRight=4;overflow=hidden;points=[[0,0.5],[1,0.5]];portConstraint=eastwest;rotatable=0;whiteSpace=wrap;html=1;fontSize=16;" vertex="1" parent="4gYyM9mv-3FjDf3Llc9C-26">
          <mxGeometry y="30" width="166" height="30" as="geometry" />
        </mxCell>
        <mxCell id="4gYyM9mv-3FjDf3Llc9C-28" value="article_translation_id" style="text;strokeColor=none;fillColor=none;align=left;verticalAlign=middle;spacingLeft=4;spacingRight=4;overflow=hidden;points=[[0,0.5],[1,0.5]];portConstraint=eastwest;rotatable=0;whiteSpace=wrap;html=1;fontSize=16;" vertex="1" parent="4gYyM9mv-3FjDf3Llc9C-26">
          <mxGeometry y="60" width="166" height="30" as="geometry" />
        </mxCell>
        <mxCell id="4gYyM9mv-3FjDf3Llc9C-29" value="type" style="text;strokeColor=none;fillColor=none;align=left;verticalAlign=middle;spacingLeft=4;spacingRight=4;overflow=hidden;points=[[0,0.5],[1,0.5]];portConstraint=eastwest;rotatable=0;whiteSpace=wrap;html=1;fontSize=16;" vertex="1" parent="4gYyM9mv-3FjDf3Llc9C-26">
          <mxGeometry y="90" width="166" height="30" as="geometry" />
        </mxCell>
        <mxCell id="4gYyM9mv-3FjDf3Llc9C-65" value="position" style="text;strokeColor=none;fillColor=none;align=left;verticalAlign=middle;spacingLeft=4;spacingRight=4;overflow=hidden;points=[[0,0.5],[1,0.5]];portConstraint=eastwest;rotatable=0;whiteSpace=wrap;html=1;fontSize=16;" vertex="1" parent="4gYyM9mv-3FjDf3Llc9C-26">
          <mxGeometry y="120" width="166" height="30" as="geometry" />
        </mxCell>
        <mxCell id="4gYyM9mv-3FjDf3Llc9C-77" style="edgeStyle=orthogonalEdgeStyle;shape=connector;rounded=0;orthogonalLoop=1;jettySize=auto;html=1;labelBackgroundColor=default;strokeColor=default;fontFamily=Helvetica;fontSize=12;fontColor=default;endArrow=none;endFill=0;startSize=8;endSize=8;" edge="1" parent="1" source="4gYyM9mv-3FjDf3Llc9C-30" target="4gYyM9mv-3FjDf3Llc9C-9">
          <mxGeometry relative="1" as="geometry">
            <Array as="points">
              <mxPoint x="-8" y="545" />
              <mxPoint x="65" y="545" />
              <mxPoint x="65" y="451" />
            </Array>
          </mxGeometry>
        </mxCell>
        <mxCell id="4gYyM9mv-3FjDf3Llc9C-94" value="1..n" style="edgeLabel;html=1;align=center;verticalAlign=middle;resizable=0;points=[];fontSize=18;fontFamily=Helvetica;fontColor=default;" vertex="1" connectable="0" parent="4gYyM9mv-3FjDf3Llc9C-77">
          <mxGeometry x="0.9303" relative="1" as="geometry">
            <mxPoint x="-8" y="-1" as="offset" />
          </mxGeometry>
        </mxCell>
        <mxCell id="4gYyM9mv-3FjDf3Llc9C-101" value="1..1" style="edgeLabel;html=1;align=center;verticalAlign=middle;resizable=0;points=[];fontSize=18;fontFamily=Helvetica;fontColor=default;" vertex="1" connectable="0" parent="4gYyM9mv-3FjDf3Llc9C-77">
          <mxGeometry x="-0.9073" y="-4" relative="1" as="geometry">
            <mxPoint as="offset" />
          </mxGeometry>
        </mxCell>
        <mxCell id="4gYyM9mv-3FjDf3Llc9C-30" value="article" style="swimlane;fontStyle=0;childLayout=stackLayout;horizontal=1;startSize=30;horizontalStack=0;resizeParent=1;resizeParentMax=0;resizeLast=0;collapsible=1;marginBottom=0;whiteSpace=wrap;html=1;fontSize=16;" vertex="1" parent="1">
          <mxGeometry x="-111" y="282" width="140" height="180" as="geometry" />
        </mxCell>
        <mxCell id="4gYyM9mv-3FjDf3Llc9C-31" value="id" style="text;strokeColor=none;fillColor=none;align=left;verticalAlign=middle;spacingLeft=4;spacingRight=4;overflow=hidden;points=[[0,0.5],[1,0.5]];portConstraint=eastwest;rotatable=0;whiteSpace=wrap;html=1;fontSize=16;" vertex="1" parent="4gYyM9mv-3FjDf3Llc9C-30">
          <mxGeometry y="30" width="140" height="30" as="geometry" />
        </mxCell>
        <mxCell id="4gYyM9mv-3FjDf3Llc9C-32" value="created_at" style="text;strokeColor=none;fillColor=none;align=left;verticalAlign=middle;spacingLeft=4;spacingRight=4;overflow=hidden;points=[[0,0.5],[1,0.5]];portConstraint=eastwest;rotatable=0;whiteSpace=wrap;html=1;fontSize=16;" vertex="1" parent="4gYyM9mv-3FjDf3Llc9C-30">
          <mxGeometry y="60" width="140" height="30" as="geometry" />
        </mxCell>
        <mxCell id="4gYyM9mv-3FjDf3Llc9C-56" value="update_at" style="text;strokeColor=none;fillColor=none;align=left;verticalAlign=middle;spacingLeft=4;spacingRight=4;overflow=hidden;points=[[0,0.5],[1,0.5]];portConstraint=eastwest;rotatable=0;whiteSpace=wrap;html=1;fontSize=16;" vertex="1" parent="4gYyM9mv-3FjDf3Llc9C-30">
          <mxGeometry y="90" width="140" height="30" as="geometry" />
        </mxCell>
        <mxCell id="4gYyM9mv-3FjDf3Llc9C-54" value="statuts" style="text;strokeColor=none;fillColor=none;align=left;verticalAlign=middle;spacingLeft=4;spacingRight=4;overflow=hidden;points=[[0,0.5],[1,0.5]];portConstraint=eastwest;rotatable=0;whiteSpace=wrap;html=1;fontSize=16;" vertex="1" parent="4gYyM9mv-3FjDf3Llc9C-30">
          <mxGeometry y="120" width="140" height="30" as="geometry" />
        </mxCell>
        <mxCell id="4gYyM9mv-3FjDf3Llc9C-57" value="author_id" style="text;strokeColor=none;fillColor=none;align=left;verticalAlign=middle;spacingLeft=4;spacingRight=4;overflow=hidden;points=[[0,0.5],[1,0.5]];portConstraint=eastwest;rotatable=0;whiteSpace=wrap;html=1;fontSize=16;" vertex="1" parent="4gYyM9mv-3FjDf3Llc9C-30">
          <mxGeometry y="150" width="140" height="30" as="geometry" />
        </mxCell>
        <mxCell id="4gYyM9mv-3FjDf3Llc9C-107" style="edgeStyle=orthogonalEdgeStyle;shape=connector;rounded=0;orthogonalLoop=1;jettySize=auto;html=1;labelBackgroundColor=default;strokeColor=default;fontFamily=Helvetica;fontSize=18;fontColor=default;endArrow=none;endFill=0;startSize=8;endSize=8;" edge="1" parent="1" source="4gYyM9mv-3FjDf3Llc9C-38" target="4gYyM9mv-3FjDf3Llc9C-9">
          <mxGeometry relative="1" as="geometry">
            <Array as="points">
              <mxPoint x="476" y="413" />
            </Array>
          </mxGeometry>
        </mxCell>
        <mxCell id="4gYyM9mv-3FjDf3Llc9C-108" value="1..n" style="edgeLabel;html=1;align=center;verticalAlign=middle;resizable=0;points=[];fontSize=18;fontFamily=Helvetica;fontColor=default;" vertex="1" connectable="0" parent="4gYyM9mv-3FjDf3Llc9C-107">
          <mxGeometry x="0.9565" y="2" relative="1" as="geometry">
            <mxPoint as="offset" />
          </mxGeometry>
        </mxCell>
        <mxCell id="4gYyM9mv-3FjDf3Llc9C-109" value="1..1" style="edgeLabel;html=1;align=center;verticalAlign=middle;resizable=0;points=[];fontSize=18;fontFamily=Helvetica;fontColor=default;" vertex="1" connectable="0" parent="4gYyM9mv-3FjDf3Llc9C-107">
          <mxGeometry x="-0.9642" y="3" relative="1" as="geometry">
            <mxPoint as="offset" />
          </mxGeometry>
        </mxCell>
        <mxCell id="4gYyM9mv-3FjDf3Llc9C-38" value="author_bio_translation" style="swimlane;fontStyle=0;childLayout=stackLayout;horizontal=1;startSize=30;horizontalStack=0;resizeParent=1;resizeParentMax=0;resizeLast=0;collapsible=1;marginBottom=0;whiteSpace=wrap;html=1;fontSize=16;" vertex="1" parent="1">
          <mxGeometry x="467" y="-72" width="190" height="150" as="geometry" />
        </mxCell>
        <mxCell id="4gYyM9mv-3FjDf3Llc9C-39" value="id" style="text;strokeColor=none;fillColor=none;align=left;verticalAlign=middle;spacingLeft=4;spacingRight=4;overflow=hidden;points=[[0,0.5],[1,0.5]];portConstraint=eastwest;rotatable=0;whiteSpace=wrap;html=1;fontSize=16;" vertex="1" parent="4gYyM9mv-3FjDf3Llc9C-38">
          <mxGeometry y="30" width="190" height="30" as="geometry" />
        </mxCell>
        <mxCell id="4gYyM9mv-3FjDf3Llc9C-40" value="author_id" style="text;strokeColor=none;fillColor=none;align=left;verticalAlign=middle;spacingLeft=4;spacingRight=4;overflow=hidden;points=[[0,0.5],[1,0.5]];portConstraint=eastwest;rotatable=0;whiteSpace=wrap;html=1;fontSize=16;" vertex="1" parent="4gYyM9mv-3FjDf3Llc9C-38">
          <mxGeometry y="60" width="190" height="30" as="geometry" />
        </mxCell>
        <mxCell id="4gYyM9mv-3FjDf3Llc9C-42" value="language_id" style="text;strokeColor=none;fillColor=none;align=left;verticalAlign=middle;spacingLeft=4;spacingRight=4;overflow=hidden;points=[[0,0.5],[1,0.5]];portConstraint=eastwest;rotatable=0;whiteSpace=wrap;html=1;fontSize=16;" vertex="1" parent="4gYyM9mv-3FjDf3Llc9C-38">
          <mxGeometry y="90" width="190" height="30" as="geometry" />
        </mxCell>
        <mxCell id="4gYyM9mv-3FjDf3Llc9C-41" value="bio" style="text;strokeColor=none;fillColor=none;align=left;verticalAlign=middle;spacingLeft=4;spacingRight=4;overflow=hidden;points=[[0,0.5],[1,0.5]];portConstraint=eastwest;rotatable=0;whiteSpace=wrap;html=1;fontSize=16;" vertex="1" parent="4gYyM9mv-3FjDf3Llc9C-38">
          <mxGeometry y="120" width="190" height="30" as="geometry" />
        </mxCell>
        <mxCell id="4gYyM9mv-3FjDf3Llc9C-43" value="author_social" style="swimlane;fontStyle=0;childLayout=stackLayout;horizontal=1;startSize=30;horizontalStack=0;resizeParent=1;resizeParentMax=0;resizeLast=0;collapsible=1;marginBottom=0;whiteSpace=wrap;html=1;fontSize=16;" vertex="1" parent="1">
          <mxGeometry x="521" y="151" width="190" height="150" as="geometry" />
        </mxCell>
        <mxCell id="4gYyM9mv-3FjDf3Llc9C-44" value="id" style="text;strokeColor=none;fillColor=none;align=left;verticalAlign=middle;spacingLeft=4;spacingRight=4;overflow=hidden;points=[[0,0.5],[1,0.5]];portConstraint=eastwest;rotatable=0;whiteSpace=wrap;html=1;fontSize=16;" vertex="1" parent="4gYyM9mv-3FjDf3Llc9C-43">
          <mxGeometry y="30" width="190" height="30" as="geometry" />
        </mxCell>
        <mxCell id="4gYyM9mv-3FjDf3Llc9C-45" value="author_id" style="text;strokeColor=none;fillColor=none;align=left;verticalAlign=middle;spacingLeft=4;spacingRight=4;overflow=hidden;points=[[0,0.5],[1,0.5]];portConstraint=eastwest;rotatable=0;whiteSpace=wrap;html=1;fontSize=16;" vertex="1" parent="4gYyM9mv-3FjDf3Llc9C-43">
          <mxGeometry y="60" width="190" height="30" as="geometry" />
        </mxCell>
        <mxCell id="4gYyM9mv-3FjDf3Llc9C-46" value="social_network" style="text;strokeColor=none;fillColor=none;align=left;verticalAlign=middle;spacingLeft=4;spacingRight=4;overflow=hidden;points=[[0,0.5],[1,0.5]];portConstraint=eastwest;rotatable=0;whiteSpace=wrap;html=1;fontSize=16;" vertex="1" parent="4gYyM9mv-3FjDf3Llc9C-43">
          <mxGeometry y="90" width="190" height="30" as="geometry" />
        </mxCell>
        <mxCell id="4gYyM9mv-3FjDf3Llc9C-47" value="url" style="text;strokeColor=none;fillColor=none;align=left;verticalAlign=middle;spacingLeft=4;spacingRight=4;overflow=hidden;points=[[0,0.5],[1,0.5]];portConstraint=eastwest;rotatable=0;whiteSpace=wrap;html=1;fontSize=16;" vertex="1" parent="4gYyM9mv-3FjDf3Llc9C-43">
          <mxGeometry y="120" width="190" height="30" as="geometry" />
        </mxCell>
        <mxCell id="4gYyM9mv-3FjDf3Llc9C-79" style="edgeStyle=orthogonalEdgeStyle;shape=connector;rounded=0;orthogonalLoop=1;jettySize=auto;html=1;labelBackgroundColor=default;strokeColor=default;fontFamily=Helvetica;fontSize=12;fontColor=default;endArrow=none;endFill=0;startSize=8;endSize=8;" edge="1" parent="1" source="4gYyM9mv-3FjDf3Llc9C-58" target="4gYyM9mv-3FjDf3Llc9C-1">
          <mxGeometry relative="1" as="geometry">
            <Array as="points">
              <mxPoint x="79" y="150" />
            </Array>
          </mxGeometry>
        </mxCell>
        <mxCell id="4gYyM9mv-3FjDf3Llc9C-132" value="1..1" style="edgeLabel;html=1;align=center;verticalAlign=middle;resizable=0;points=[];fontSize=18;fontFamily=Helvetica;fontColor=default;" vertex="1" connectable="0" parent="4gYyM9mv-3FjDf3Llc9C-79">
          <mxGeometry x="-0.92" y="-4" relative="1" as="geometry">
            <mxPoint as="offset" />
          </mxGeometry>
        </mxCell>
        <mxCell id="4gYyM9mv-3FjDf3Llc9C-137" value="1..n" style="edgeLabel;html=1;align=center;verticalAlign=middle;resizable=0;points=[];fontSize=18;fontFamily=Helvetica;fontColor=default;" vertex="1" connectable="0" parent="4gYyM9mv-3FjDf3Llc9C-79">
          <mxGeometry x="0.92" y="-5" relative="1" as="geometry">
            <mxPoint as="offset" />
          </mxGeometry>
        </mxCell>
        <mxCell id="4gYyM9mv-3FjDf3Llc9C-80" style="edgeStyle=orthogonalEdgeStyle;shape=connector;rounded=0;orthogonalLoop=1;jettySize=auto;html=1;labelBackgroundColor=default;strokeColor=default;fontFamily=Helvetica;fontSize=12;fontColor=default;endArrow=none;endFill=0;startSize=8;endSize=8;" edge="1" parent="1" source="4gYyM9mv-3FjDf3Llc9C-58" target="4gYyM9mv-3FjDf3Llc9C-30">
          <mxGeometry relative="1" as="geometry">
            <Array as="points">
              <mxPoint x="13" y="240" />
              <mxPoint x="-41" y="240" />
            </Array>
          </mxGeometry>
        </mxCell>
        <mxCell id="4gYyM9mv-3FjDf3Llc9C-110" value="1..n" style="edgeLabel;html=1;align=center;verticalAlign=middle;resizable=0;points=[];fontSize=18;fontFamily=Helvetica;fontColor=default;" vertex="1" connectable="0" parent="4gYyM9mv-3FjDf3Llc9C-80">
          <mxGeometry x="0.8175" y="-1" relative="1" as="geometry">
            <mxPoint as="offset" />
          </mxGeometry>
        </mxCell>
        <mxCell id="4gYyM9mv-3FjDf3Llc9C-111" value="1..1" style="edgeLabel;html=1;align=center;verticalAlign=middle;resizable=0;points=[];fontSize=18;fontFamily=Helvetica;fontColor=default;" vertex="1" connectable="0" parent="4gYyM9mv-3FjDf3Llc9C-80">
          <mxGeometry x="-0.9011" y="3" relative="1" as="geometry">
            <mxPoint as="offset" />
          </mxGeometry>
        </mxCell>
        <mxCell id="4gYyM9mv-3FjDf3Llc9C-58" value="article_translation" style="swimlane;fontStyle=0;childLayout=stackLayout;horizontal=1;startSize=30;horizontalStack=0;resizeParent=1;resizeParentMax=0;resizeLast=0;collapsible=1;marginBottom=0;whiteSpace=wrap;html=1;fontSize=16;" vertex="1" parent="1">
          <mxGeometry x="-23" y="-13" width="154" height="210" as="geometry" />
        </mxCell>
        <mxCell id="4gYyM9mv-3FjDf3Llc9C-59" value="id" style="text;strokeColor=none;fillColor=none;align=left;verticalAlign=middle;spacingLeft=4;spacingRight=4;overflow=hidden;points=[[0,0.5],[1,0.5]];portConstraint=eastwest;rotatable=0;whiteSpace=wrap;html=1;fontSize=16;" vertex="1" parent="4gYyM9mv-3FjDf3Llc9C-58">
          <mxGeometry y="30" width="154" height="30" as="geometry" />
        </mxCell>
        <mxCell id="4gYyM9mv-3FjDf3Llc9C-60" value="article_id" style="text;strokeColor=none;fillColor=none;align=left;verticalAlign=middle;spacingLeft=4;spacingRight=4;overflow=hidden;points=[[0,0.5],[1,0.5]];portConstraint=eastwest;rotatable=0;whiteSpace=wrap;html=1;fontSize=16;" vertex="1" parent="4gYyM9mv-3FjDf3Llc9C-58">
          <mxGeometry y="60" width="154" height="30" as="geometry" />
        </mxCell>
        <mxCell id="4gYyM9mv-3FjDf3Llc9C-61" value="language_id" style="text;strokeColor=none;fillColor=none;align=left;verticalAlign=middle;spacingLeft=4;spacingRight=4;overflow=hidden;points=[[0,0.5],[1,0.5]];portConstraint=eastwest;rotatable=0;whiteSpace=wrap;html=1;fontSize=16;" vertex="1" parent="4gYyM9mv-3FjDf3Llc9C-58">
          <mxGeometry y="90" width="154" height="30" as="geometry" />
        </mxCell>
        <mxCell id="4gYyM9mv-3FjDf3Llc9C-62" value="title" style="text;strokeColor=none;fillColor=none;align=left;verticalAlign=middle;spacingLeft=4;spacingRight=4;overflow=hidden;points=[[0,0.5],[1,0.5]];portConstraint=eastwest;rotatable=0;whiteSpace=wrap;html=1;fontSize=16;" vertex="1" parent="4gYyM9mv-3FjDf3Llc9C-58">
          <mxGeometry y="120" width="154" height="30" as="geometry" />
        </mxCell>
        <mxCell id="4gYyM9mv-3FjDf3Llc9C-63" value="slug" style="text;strokeColor=none;fillColor=none;align=left;verticalAlign=middle;spacingLeft=4;spacingRight=4;overflow=hidden;points=[[0,0.5],[1,0.5]];portConstraint=eastwest;rotatable=0;whiteSpace=wrap;html=1;fontSize=16;" vertex="1" parent="4gYyM9mv-3FjDf3Llc9C-58">
          <mxGeometry y="150" width="154" height="30" as="geometry" />
        </mxCell>
        <mxCell id="4gYyM9mv-3FjDf3Llc9C-64" value="content" style="text;strokeColor=none;fillColor=none;align=left;verticalAlign=middle;spacingLeft=4;spacingRight=4;overflow=hidden;points=[[0,0.5],[1,0.5]];portConstraint=eastwest;rotatable=0;whiteSpace=wrap;html=1;fontSize=16;" vertex="1" parent="4gYyM9mv-3FjDf3Llc9C-58">
          <mxGeometry y="180" width="154" height="30" as="geometry" />
        </mxCell>
        <mxCell id="4gYyM9mv-3FjDf3Llc9C-83" style="edgeStyle=orthogonalEdgeStyle;shape=connector;rounded=0;orthogonalLoop=1;jettySize=auto;html=1;labelBackgroundColor=default;strokeColor=default;fontFamily=Helvetica;fontSize=12;fontColor=default;endArrow=none;endFill=0;startSize=8;endSize=8;" edge="1" parent="1" source="4gYyM9mv-3FjDf3Llc9C-66" target="4gYyM9mv-3FjDf3Llc9C-1">
          <mxGeometry relative="1" as="geometry">
            <Array as="points">
              <mxPoint x="154" y="-18" />
            </Array>
          </mxGeometry>
        </mxCell>
        <mxCell id="4gYyM9mv-3FjDf3Llc9C-133" value="1..1" style="edgeLabel;html=1;align=center;verticalAlign=middle;resizable=0;points=[];fontSize=18;fontFamily=Helvetica;fontColor=default;" vertex="1" connectable="0" parent="4gYyM9mv-3FjDf3Llc9C-83">
          <mxGeometry x="-0.7205" y="-2" relative="1" as="geometry">
            <mxPoint as="offset" />
          </mxGeometry>
        </mxCell>
        <mxCell id="4gYyM9mv-3FjDf3Llc9C-136" value="1..n" style="edgeLabel;html=1;align=center;verticalAlign=middle;resizable=0;points=[];fontSize=18;fontFamily=Helvetica;fontColor=default;" vertex="1" connectable="0" parent="4gYyM9mv-3FjDf3Llc9C-83">
          <mxGeometry x="0.8137" y="-1" relative="1" as="geometry">
            <mxPoint as="offset" />
          </mxGeometry>
        </mxCell>
        <mxCell id="4gYyM9mv-3FjDf3Llc9C-66" value="content_block_translation" style="swimlane;fontStyle=0;childLayout=stackLayout;horizontal=1;startSize=30;horizontalStack=0;resizeParent=1;resizeParentMax=0;resizeLast=0;collapsible=1;marginBottom=0;whiteSpace=wrap;html=1;fontSize=16;" vertex="1" parent="1">
          <mxGeometry x="225.5" y="-93" width="211" height="149" as="geometry" />
        </mxCell>
        <mxCell id="4gYyM9mv-3FjDf3Llc9C-67" value="id" style="text;strokeColor=none;fillColor=none;align=left;verticalAlign=middle;spacingLeft=4;spacingRight=4;overflow=hidden;points=[[0,0.5],[1,0.5]];portConstraint=eastwest;rotatable=0;whiteSpace=wrap;html=1;fontSize=16;" vertex="1" parent="4gYyM9mv-3FjDf3Llc9C-66">
          <mxGeometry y="30" width="211" height="29" as="geometry" />
        </mxCell>
        <mxCell id="4gYyM9mv-3FjDf3Llc9C-68" value="content_block_id" style="text;strokeColor=none;fillColor=none;align=left;verticalAlign=middle;spacingLeft=4;spacingRight=4;overflow=hidden;points=[[0,0.5],[1,0.5]];portConstraint=eastwest;rotatable=0;whiteSpace=wrap;html=1;fontSize=16;" vertex="1" parent="4gYyM9mv-3FjDf3Llc9C-66">
          <mxGeometry y="59" width="211" height="30" as="geometry" />
        </mxCell>
        <mxCell id="4gYyM9mv-3FjDf3Llc9C-69" value="language_id" style="text;strokeColor=none;fillColor=none;align=left;verticalAlign=middle;spacingLeft=4;spacingRight=4;overflow=hidden;points=[[0,0.5],[1,0.5]];portConstraint=eastwest;rotatable=0;whiteSpace=wrap;html=1;fontSize=16;" vertex="1" parent="4gYyM9mv-3FjDf3Llc9C-66">
          <mxGeometry y="89" width="211" height="30" as="geometry" />
        </mxCell>
        <mxCell id="4gYyM9mv-3FjDf3Llc9C-70" value="value" style="text;strokeColor=none;fillColor=none;align=left;verticalAlign=middle;spacingLeft=4;spacingRight=4;overflow=hidden;points=[[0,0.5],[1,0.5]];portConstraint=eastwest;rotatable=0;whiteSpace=wrap;html=1;fontSize=16;" vertex="1" parent="4gYyM9mv-3FjDf3Llc9C-66">
          <mxGeometry y="119" width="211" height="30" as="geometry" />
        </mxCell>
        <mxCell id="4gYyM9mv-3FjDf3Llc9C-86" style="edgeStyle=orthogonalEdgeStyle;shape=connector;rounded=0;orthogonalLoop=1;jettySize=auto;html=1;labelBackgroundColor=default;strokeColor=default;fontFamily=Helvetica;fontSize=12;fontColor=default;endArrow=none;endFill=0;startSize=8;endSize=8;" edge="1" parent="1" source="4gYyM9mv-3FjDf3Llc9C-71" target="4gYyM9mv-3FjDf3Llc9C-30">
          <mxGeometry relative="1" as="geometry">
            <Array as="points">
              <mxPoint x="47" y="672" />
              <mxPoint x="47" y="628" />
              <mxPoint x="-65" y="628" />
            </Array>
          </mxGeometry>
        </mxCell>
        <mxCell id="4gYyM9mv-3FjDf3Llc9C-93" value="1..n" style="edgeLabel;html=1;align=center;verticalAlign=middle;resizable=0;points=[];fontSize=18;fontFamily=Helvetica;fontColor=default;" vertex="1" connectable="0" parent="4gYyM9mv-3FjDf3Llc9C-86">
          <mxGeometry x="0.9189" relative="1" as="geometry">
            <mxPoint x="8" as="offset" />
          </mxGeometry>
        </mxCell>
        <mxCell id="4gYyM9mv-3FjDf3Llc9C-102" value="1..1" style="edgeLabel;html=1;align=center;verticalAlign=middle;resizable=0;points=[];fontSize=18;fontFamily=Helvetica;fontColor=default;" vertex="1" connectable="0" parent="4gYyM9mv-3FjDf3Llc9C-86">
          <mxGeometry x="-0.875" y="-1" relative="1" as="geometry">
            <mxPoint as="offset" />
          </mxGeometry>
        </mxCell>
        <mxCell id="4gYyM9mv-3FjDf3Llc9C-71" value="comment" style="swimlane;fontStyle=0;childLayout=stackLayout;horizontal=1;startSize=30;horizontalStack=0;resizeParent=1;resizeParentMax=0;resizeLast=0;collapsible=1;marginBottom=0;whiteSpace=wrap;html=1;fontSize=16;" vertex="1" parent="1">
          <mxGeometry x="131" y="515" width="166" height="180" as="geometry" />
        </mxCell>
        <mxCell id="4gYyM9mv-3FjDf3Llc9C-72" value="id" style="text;strokeColor=none;fillColor=none;align=left;verticalAlign=middle;spacingLeft=4;spacingRight=4;overflow=hidden;points=[[0,0.5],[1,0.5]];portConstraint=eastwest;rotatable=0;whiteSpace=wrap;html=1;fontSize=16;" vertex="1" parent="4gYyM9mv-3FjDf3Llc9C-71">
          <mxGeometry y="30" width="166" height="30" as="geometry" />
        </mxCell>
        <mxCell id="4gYyM9mv-3FjDf3Llc9C-92" value="article_id" style="text;strokeColor=none;fillColor=none;align=left;verticalAlign=middle;spacingLeft=4;spacingRight=4;overflow=hidden;points=[[0,0.5],[1,0.5]];portConstraint=eastwest;rotatable=0;whiteSpace=wrap;html=1;fontSize=16;" vertex="1" parent="4gYyM9mv-3FjDf3Llc9C-71">
          <mxGeometry y="60" width="166" height="30" as="geometry" />
        </mxCell>
        <mxCell id="4gYyM9mv-3FjDf3Llc9C-74" value="content" style="text;strokeColor=none;fillColor=none;align=left;verticalAlign=middle;spacingLeft=4;spacingRight=4;overflow=hidden;points=[[0,0.5],[1,0.5]];portConstraint=eastwest;rotatable=0;whiteSpace=wrap;html=1;fontSize=16;" vertex="1" parent="4gYyM9mv-3FjDf3Llc9C-71">
          <mxGeometry y="90" width="166" height="30" as="geometry" />
        </mxCell>
        <mxCell id="4gYyM9mv-3FjDf3Llc9C-75" value="position" style="text;strokeColor=none;fillColor=none;align=left;verticalAlign=middle;spacingLeft=4;spacingRight=4;overflow=hidden;points=[[0,0.5],[1,0.5]];portConstraint=eastwest;rotatable=0;whiteSpace=wrap;html=1;fontSize=16;" vertex="1" parent="4gYyM9mv-3FjDf3Llc9C-71">
          <mxGeometry y="120" width="166" height="30" as="geometry" />
        </mxCell>
        <mxCell id="4gYyM9mv-3FjDf3Llc9C-76" value="timestamp" style="text;strokeColor=none;fillColor=none;align=left;verticalAlign=middle;spacingLeft=4;spacingRight=4;overflow=hidden;points=[[0,0.5],[1,0.5]];portConstraint=eastwest;rotatable=0;whiteSpace=wrap;html=1;fontSize=16;" vertex="1" parent="4gYyM9mv-3FjDf3Llc9C-71">
          <mxGeometry y="150" width="166" height="30" as="geometry" />
        </mxCell>
        <mxCell id="4gYyM9mv-3FjDf3Llc9C-78" style="edgeStyle=orthogonalEdgeStyle;shape=connector;rounded=0;orthogonalLoop=1;jettySize=auto;html=1;labelBackgroundColor=default;strokeColor=default;fontFamily=Helvetica;fontSize=12;fontColor=default;endArrow=none;endFill=0;startSize=8;endSize=8;" edge="1" parent="1" source="4gYyM9mv-3FjDf3Llc9C-54" target="4gYyM9mv-3FjDf3Llc9C-118">
          <mxGeometry relative="1" as="geometry" />
        </mxCell>
        <mxCell id="4gYyM9mv-3FjDf3Llc9C-117" value="1..n" style="edgeLabel;html=1;align=center;verticalAlign=middle;resizable=0;points=[];fontSize=18;fontFamily=Helvetica;fontColor=default;" vertex="1" connectable="0" parent="4gYyM9mv-3FjDf3Llc9C-78">
          <mxGeometry x="-0.86" y="-4" relative="1" as="geometry">
            <mxPoint x="-15" as="offset" />
          </mxGeometry>
        </mxCell>
        <mxCell id="4gYyM9mv-3FjDf3Llc9C-123" value="1..1" style="edgeLabel;html=1;align=center;verticalAlign=middle;resizable=0;points=[];fontSize=18;fontFamily=Helvetica;fontColor=default;" vertex="1" connectable="0" parent="4gYyM9mv-3FjDf3Llc9C-78">
          <mxGeometry x="0.8457" y="-3" relative="1" as="geometry">
            <mxPoint x="1" y="1" as="offset" />
          </mxGeometry>
        </mxCell>
        <mxCell id="4gYyM9mv-3FjDf3Llc9C-122" style="edgeStyle=orthogonalEdgeStyle;shape=connector;rounded=0;orthogonalLoop=1;jettySize=auto;html=1;labelBackgroundColor=default;strokeColor=default;fontFamily=Helvetica;fontSize=18;fontColor=default;endArrow=none;endFill=0;startSize=8;endSize=8;" edge="1" parent="1" source="4gYyM9mv-3FjDf3Llc9C-118" target="4gYyM9mv-3FjDf3Llc9C-21">
          <mxGeometry relative="1" as="geometry" />
        </mxCell>
        <mxCell id="4gYyM9mv-3FjDf3Llc9C-124" value="1..1" style="edgeLabel;html=1;align=center;verticalAlign=middle;resizable=0;points=[];fontSize=18;fontFamily=Helvetica;fontColor=default;" vertex="1" connectable="0" parent="4gYyM9mv-3FjDf3Llc9C-122">
          <mxGeometry x="-0.7929" relative="1" as="geometry">
            <mxPoint x="1" as="offset" />
          </mxGeometry>
        </mxCell>
        <mxCell id="4gYyM9mv-3FjDf3Llc9C-126" value="1..n" style="edgeLabel;html=1;align=center;verticalAlign=middle;resizable=0;points=[];fontSize=18;fontFamily=Helvetica;fontColor=default;" vertex="1" connectable="0" parent="4gYyM9mv-3FjDf3Llc9C-122">
          <mxGeometry x="0.7799" y="3" relative="1" as="geometry">
            <mxPoint as="offset" />
          </mxGeometry>
        </mxCell>
        <mxCell id="4gYyM9mv-3FjDf3Llc9C-118" value="category_article" style="swimlane;fontStyle=0;childLayout=stackLayout;horizontal=1;startSize=30;horizontalStack=0;resizeParent=1;resizeParentMax=0;resizeLast=0;collapsible=1;marginBottom=0;whiteSpace=wrap;html=1;labelBackgroundColor=default;fontFamily=Helvetica;fontSize=18;fontColor=default;fillColor=none;gradientColor=none;" vertex="1" parent="1">
          <mxGeometry x="-389" y="395" width="187" height="120" as="geometry" />
        </mxCell>
        <mxCell id="4gYyM9mv-3FjDf3Llc9C-119" value="id" style="text;strokeColor=none;fillColor=none;align=left;verticalAlign=middle;spacingLeft=4;spacingRight=4;overflow=hidden;points=[[0,0.5],[1,0.5]];portConstraint=eastwest;rotatable=0;whiteSpace=wrap;html=1;fontSize=18;fontFamily=Helvetica;fontColor=default;" vertex="1" parent="4gYyM9mv-3FjDf3Llc9C-118">
          <mxGeometry y="30" width="187" height="30" as="geometry" />
        </mxCell>
        <mxCell id="4gYyM9mv-3FjDf3Llc9C-120" value="category_id" style="text;strokeColor=none;fillColor=none;align=left;verticalAlign=middle;spacingLeft=4;spacingRight=4;overflow=hidden;points=[[0,0.5],[1,0.5]];portConstraint=eastwest;rotatable=0;whiteSpace=wrap;html=1;fontSize=18;fontFamily=Helvetica;fontColor=default;" vertex="1" parent="4gYyM9mv-3FjDf3Llc9C-118">
          <mxGeometry y="60" width="187" height="30" as="geometry" />
        </mxCell>
        <mxCell id="4gYyM9mv-3FjDf3Llc9C-121" value="article_id" style="text;strokeColor=none;fillColor=none;align=left;verticalAlign=middle;spacingLeft=4;spacingRight=4;overflow=hidden;points=[[0,0.5],[1,0.5]];portConstraint=eastwest;rotatable=0;whiteSpace=wrap;html=1;fontSize=18;fontFamily=Helvetica;fontColor=default;" vertex="1" parent="4gYyM9mv-3FjDf3Llc9C-118">
          <mxGeometry y="90" width="187" height="30" as="geometry" />
        </mxCell>
      </root>
    </mxGraphModel>
  </diagram>
</mxfile>
